<?xml version="1.0" encoding="UTF-8"?>
<svg xmlns="http://www.w3.org/2000/svg" viewBox="0 0 512 512" width="512" height="512">
  <rect x="0" y="0" width="512" height="512" rx="92.16" ry="92.16" fill="#4f46e5"/>
  <path d="M984 325V0H844V306Q844 371 811.0 405.5Q778 440 721 440Q664 440 630.5 405.5Q597 371 597 306V0H457V306Q457 371 424.0 405.5Q391 440 334 440Q276 440 242.5 405.5Q209 371 209 306V0H69V554H209V487Q236 522 278.5 542.0Q321 562 372 562Q437 562 488.0 534.5Q539 507 567 456Q594 504 645.5 533.0Q697 562 757 562Q859 562 921.5 499.5Q984 437 984 325Z" transform="translate(130.66, 313.57) scale(0.23919, -0.23919)" fill="#ffffff"/>
  <circle cx="365.98" cy="171.21" r="38.40" fill="#f59e0b"/>
</svg>