<?xml version="1.0" encoding="UTF-8"?>
<svg xmlns="http://www.w3.org/2000/svg" viewBox="0 0 674 180" width="674" height="180">
  <g transform="translate(20.00, 20.00)">
    <rect x="0" y="0" width="140" height="140" rx="25.2" ry="25.2" fill="#111827"/>
  <path d="M984 325V0H844V306Q844 371 811.0 405.5Q778 440 721 440Q664 440 630.5 405.5Q597 371 597 306V0H457V306Q457 371 424.0 405.5Q391 440 334 440Q276 440 242.5 405.5Q209 371 209 306V0H69V554H209V487Q236 522 278.5 542.0Q321 562 372 562Q437 562 488.0 534.5Q539 507 567 456Q594 504 645.5 533.0Q697 562 757 562Q859 562 921.5 499.5Q984 437 984 325Z" transform="translate(34.16, 81.27) scale(0.03577, -0.03577)" fill="#ffffff"/>
  <path d="M287 563Q341 563 390.0 539.5Q439 516 468 477V740H610V0H468V82Q442 41 395.0 16.0Q348 -9 286 -9Q216 -9 158.0 27.0Q100 63 66.5 128.5Q33 194 33 279Q33 363 66.5 428.0Q100 493 158.0 528.0Q216 563 287 563ZM322 440Q283 440 250.0 421.0Q217 402 196.5 365.5Q176 329 176 279Q176 229 196.5 191.5Q217 154 250.5 134.0Q284 114 322 114Q361 114 395.0 133.5Q429 153 449.0 189.5Q469 226 469 277Q469 328 449.0 364.5Q429 401 395.0 420.5Q361 440 322 440Z" transform="translate(71.65, 81.27) scale(0.03577, -0.03577)" fill="#ffffff"/>
  <path d="M209 740V0H69V740Z" transform="translate(95.90, 81.27) scale(0.03577, -0.03577)" fill="#ffffff"/>
  
  </g>
  <path d="M830 698V0H690V454L503 0H397L209 454V0H69V698H228L450 179L672 698Z" transform="translate(188.00, 98.49) scale(0.04400, -0.04400)" fill="#111827"/>
  <path d="M580 235H175Q180 175 217.0 141.0Q254 107 308 107Q386 107 419 174H570Q546 94 478.0 42.5Q410 -9 311 -9Q231 -9 167.5 26.5Q104 62 68.5 127.0Q33 192 33 277Q33 363 68.0 428.0Q103 493 166.0 528.0Q229 563 311 563Q390 563 452.5 529.0Q515 495 549.5 432.5Q584 370 584 289Q584 259 580 235ZM439 329Q438 383 400.0 415.5Q362 448 307 448Q255 448 219.5 416.5Q184 385 176 329Z" transform="translate(227.56, 98.49) scale(0.04400, -0.04400)" fill="#111827"/>
  <path d="M39 175H180Q184 143 211.5 122.0Q239 101 280 101Q320 101 342.5 117.0Q365 133 365 158Q365 185 337.5 198.5Q310 212 250 228Q188 243 148.5 259.0Q109 275 80.5 308.0Q52 341 52 397Q52 443 78.5 481.0Q105 519 154.5 541.0Q204 563 271 563Q370 563 429.0 513.5Q488 464 494 380H360Q357 413 332.5 432.5Q308 452 267 452Q229 452 208.5 438.0Q188 424 188 399Q188 371 216.0 356.5Q244 342 303 327Q363 312 402.0 296.0Q441 280 469.5 246.5Q498 213 499 158Q499 110 472.5 72.0Q446 34 396.5 12.5Q347 -9 281 -9Q213 -9 159.0 15.5Q105 40 73.5 82.0Q42 124 39 175Z" transform="translate(254.70, 98.49) scale(0.04400, -0.04400)" fill="#111827"/>
  <path d="" transform="translate(278.68, 98.49) scale(0.04400, -0.04400)" fill="#111827"/>
  <path d="M287 563Q341 563 390.0 539.5Q439 516 468 477V740H610V0H468V82Q442 41 395.0 16.0Q348 -9 286 -9Q216 -9 158.0 27.0Q100 63 66.5 128.5Q33 194 33 279Q33 363 66.5 428.0Q100 493 158.0 528.0Q216 563 287 563ZM322 440Q283 440 250.0 421.0Q217 402 196.5 365.5Q176 329 176 279Q176 229 196.5 191.5Q217 154 250.5 134.0Q284 114 322 114Q361 114 395.0 133.5Q429 153 449.0 189.5Q469 226 469 277Q469 328 449.0 364.5Q429 401 395.0 420.5Q361 440 322 440Z" transform="translate(289.16, 98.49) scale(0.04400, -0.04400)" fill="#111827"/>
  <path d="M34 277Q34 362 71.5 427.0Q109 492 174.0 527.5Q239 563 319 563Q399 563 464.0 527.5Q529 492 566.5 427.0Q604 362 604 277Q604 192 565.5 127.0Q527 62 461.5 26.5Q396 -9 315 -9Q235 -9 171.0 26.5Q107 62 70.5 127.0Q34 192 34 277ZM460 277Q460 356 418.5 398.5Q377 441 317 441Q257 441 216.5 398.5Q176 356 176 277Q176 198 215.5 155.5Q255 113 315 113Q353 113 386.5 131.5Q420 150 440.0 187.0Q460 224 460 277Z" transform="translate(318.99, 98.49) scale(0.04400, -0.04400)" fill="#111827"/>
  <path d="M597 325V0H457V306Q457 372 424.0 407.5Q391 443 334 443Q276 443 242.5 407.5Q209 372 209 306V0H69V554H209V485Q237 521 280.5 541.5Q324 562 376 562Q475 562 536.0 499.5Q597 437 597 325Z" transform="translate(347.06, 98.49) scale(0.04400, -0.04400)" fill="#111827"/>
  <path d="M597 325V0H457V306Q457 372 424.0 407.5Q391 443 334 443Q276 443 242.5 407.5Q209 372 209 306V0H69V554H209V485Q237 521 280.5 541.5Q324 562 376 562Q475 562 536.0 499.5Q597 437 597 325Z" transform="translate(376.14, 98.49) scale(0.04400, -0.04400)" fill="#111827"/>
  <path d="M580 235H175Q180 175 217.0 141.0Q254 107 308 107Q386 107 419 174H570Q546 94 478.0 42.5Q410 -9 311 -9Q231 -9 167.5 26.5Q104 62 68.5 127.0Q33 192 33 277Q33 363 68.0 428.0Q103 493 166.0 528.0Q229 563 311 563Q390 563 452.5 529.0Q515 495 549.5 432.5Q584 370 584 289Q584 259 580 235ZM439 329Q438 383 400.0 415.5Q362 448 307 448Q255 448 219.5 416.5Q184 385 176 329ZM418 700 188 595V695L418 814Z" transform="translate(405.23, 98.49) scale(0.04400, -0.04400)" fill="#111827"/>
  <path d="M580 235H175Q180 175 217.0 141.0Q254 107 308 107Q386 107 419 174H570Q546 94 478.0 42.5Q410 -9 311 -9Q231 -9 167.5 26.5Q104 62 68.5 127.0Q33 192 33 277Q33 363 68.0 428.0Q103 493 166.0 528.0Q229 563 311 563Q390 563 452.5 529.0Q515 495 549.5 432.5Q584 370 584 289Q584 259 580 235ZM439 329Q438 383 400.0 415.5Q362 448 307 448Q255 448 219.5 416.5Q184 385 176 329Z" transform="translate(432.38, 98.49) scale(0.04400, -0.04400)" fill="#111827"/>
  <path d="M39 175H180Q184 143 211.5 122.0Q239 101 280 101Q320 101 342.5 117.0Q365 133 365 158Q365 185 337.5 198.5Q310 212 250 228Q188 243 148.5 259.0Q109 275 80.5 308.0Q52 341 52 397Q52 443 78.5 481.0Q105 519 154.5 541.0Q204 563 271 563Q370 563 429.0 513.5Q488 464 494 380H360Q357 413 332.5 432.5Q308 452 267 452Q229 452 208.5 438.0Q188 424 188 399Q188 371 216.0 356.5Q244 342 303 327Q363 312 402.0 296.0Q441 280 469.5 246.5Q498 213 499 158Q499 110 472.5 72.0Q446 34 396.5 12.5Q347 -9 281 -9Q213 -9 159.0 15.5Q105 40 73.5 82.0Q42 124 39 175Z" transform="translate(459.52, 98.49) scale(0.04400, -0.04400)" fill="#111827"/>
  <path d="" transform="translate(483.50, 98.49) scale(0.04400, -0.04400)" fill="#111827"/>
  <path d="M209 740V0H69V740Z" transform="translate(493.98, 98.49) scale(0.04400, -0.04400)" fill="#111827"/>
  <path d="M34 277Q34 362 71.5 427.0Q109 492 174.0 527.5Q239 563 319 563Q399 563 464.0 527.5Q529 492 566.5 427.0Q604 362 604 277Q604 192 565.5 127.0Q527 62 461.5 26.5Q396 -9 315 -9Q235 -9 171.0 26.5Q107 62 70.5 127.0Q34 192 34 277ZM460 277Q460 356 418.5 398.5Q377 441 317 441Q257 441 216.5 398.5Q176 356 176 277Q176 198 215.5 155.5Q255 113 315 113Q353 113 386.5 131.5Q420 150 440.0 187.0Q460 224 460 277Z" transform="translate(506.21, 98.49) scale(0.04400, -0.04400)" fill="#111827"/>
  <path d="M307 563Q410 563 477.5 511.5Q545 460 568 367H417Q405 403 376.5 423.5Q348 444 306 444Q246 444 211.0 400.5Q176 357 176 277Q176 198 211.0 154.5Q246 111 306 111Q391 111 417 187H568Q545 97 477.0 44.0Q409 -9 307 -9Q227 -9 165.0 26.5Q103 62 68.0 126.5Q33 191 33 277Q33 363 68.0 427.5Q103 492 165.0 527.5Q227 563 307 563Z" transform="translate(534.28, 98.49) scale(0.04400, -0.04400)" fill="#111827"/>
  <path d="M286 563Q348 563 394.5 538.0Q441 513 469 475V554H610V0H469V81Q442 42 394.5 16.5Q347 -9 285 -9Q215 -9 157.5 27.0Q100 63 66.5 128.5Q33 194 33 279Q33 363 66.5 428.0Q100 493 157.5 528.0Q215 563 286 563ZM322 440Q283 440 250.0 421.0Q217 402 196.5 365.5Q176 329 176 279Q176 229 196.5 191.5Q217 154 250.5 134.0Q284 114 322 114Q361 114 395.0 133.5Q429 153 449.0 189.5Q469 226 469 277Q469 328 449.0 364.5Q429 401 395.0 420.5Q361 440 322 440Z" transform="translate(560.77, 98.49) scale(0.04400, -0.04400)" fill="#111827"/>
  <path d="M209 740V0H69V740Z" transform="translate(590.60, 98.49) scale(0.04400, -0.04400)" fill="#111827"/>
  <path d="M580 235H175Q180 175 217.0 141.0Q254 107 308 107Q386 107 419 174H570Q546 94 478.0 42.5Q410 -9 311 -9Q231 -9 167.5 26.5Q104 62 68.5 127.0Q33 192 33 277Q33 363 68.0 428.0Q103 493 166.0 528.0Q229 563 311 563Q390 563 452.5 529.0Q515 495 549.5 432.5Q584 370 584 289Q584 259 580 235ZM439 329Q438 383 400.0 415.5Q362 448 307 448Q255 448 219.5 416.5Q184 385 176 329Z" transform="translate(602.83, 98.49) scale(0.04400, -0.04400)" fill="#111827"/>
  <path d="M39 175H180Q184 143 211.5 122.0Q239 101 280 101Q320 101 342.5 117.0Q365 133 365 158Q365 185 337.5 198.5Q310 212 250 228Q188 243 148.5 259.0Q109 275 80.5 308.0Q52 341 52 397Q52 443 78.5 481.0Q105 519 154.5 541.0Q204 563 271 563Q370 563 429.0 513.5Q488 464 494 380H360Q357 413 332.5 432.5Q308 452 267 452Q229 452 208.5 438.0Q188 424 188 399Q188 371 216.0 356.5Q244 342 303 327Q363 312 402.0 296.0Q441 280 469.5 246.5Q498 213 499 158Q499 110 472.5 72.0Q446 34 396.5 12.5Q347 -9 281 -9Q213 -9 159.0 15.5Q105 40 73.5 82.0Q42 124 39 175Z" transform="translate(629.98, 98.49) scale(0.04400, -0.04400)" fill="#111827"/>
  <path d="M1025 389Q1025 259 960.5 167.5Q896 76 780.0 28.0Q664 -20 507 -20Q424 -20 350.0 -12.0Q276 -4 214.0 11.0Q152 26 105 48V211Q180 180 288.0 153.5Q396 127 514 127Q624 127 700.0 156.5Q776 186 815.5 241.5Q855 297 855 375Q855 450 822.0 500.5Q789 551 712.5 592.5Q636 634 504 681Q411 714 340.0 753.5Q269 793 221.0 843.0Q173 893 148.5 959.0Q124 1025 124 1110Q124 1227 183.5 1310.5Q243 1394 348.5 1438.5Q454 1483 591 1483Q708 1483 807.5 1461.0Q907 1439 990 1402L937 1256Q858 1289 769.5 1311.0Q681 1333 587 1333Q493 1333 428.5 1305.5Q364 1278 330.0 1228.0Q296 1178 296 1109Q296 1032 328.5 981.0Q361 930 432.5 890.5Q504 851 622 808Q751 761 841.0 708.5Q931 656 978.0 580.5Q1025 505 1025 389Z" transform="translate(188.00, 112.31) scale(0.00830, -0.00830)" fill="#374151"/>
  <path d="M585 1114Q781 1114 876.0 1026.0Q971 938 971 745V0H850L818 162H810Q764 102 714.0 61.5Q664 21 598.5 0.5Q533 -20 438 -20Q338 -20 260.5 15.0Q183 50 138.5 121.0Q94 192 94 301Q94 465 224.0 553.0Q354 641 620 649L809 657V724Q809 866 748.0 923.0Q687 980 576 980Q490 980 412.0 955.0Q334 930 264 896L213 1022Q287 1060 383.0 1087.0Q479 1114 585 1114ZM807 540 640 533Q435 525 351.0 466.0Q267 407 267 299Q267 205 324.0 160.0Q381 115 475 115Q621 115 714.0 196.0Q807 277 807 439Z" transform="translate(197.32, 112.31) scale(0.00830, -0.00830)" fill="#374151"/>
  <path d="M416 0 0 1096H178L419 433Q444 365 470.0 283.0Q496 201 506 151H513Q525 201 553.0 283.5Q581 366 604 433L845 1096H1023L606 0Z" transform="translate(206.77, 112.31) scale(0.00830, -0.00830)" fill="#374151"/>
  <path d="M1120 550Q1120 415 1085.0 309.0Q1050 203 984.0 130.0Q918 57 824.5 18.5Q731 -20 613 -20Q503 -20 411.5 18.5Q320 57 253.5 130.0Q187 203 150.5 309.0Q114 415 114 550Q114 730 175.0 856.5Q236 983 349.5 1049.5Q463 1116 620 1116Q770 1116 882.5 1049.0Q995 982 1057.5 855.5Q1120 729 1120 550ZM286 550Q286 418 321.0 321.0Q356 224 429.0 171.0Q502 118 617 118Q731 118 804.5 171.0Q878 224 913.0 321.0Q948 418 948 550Q948 681 913.0 776.5Q878 872 805.0 924.0Q732 976 616 976Q445 976 365.5 863.0Q286 750 286 550Z" transform="translate(215.26, 112.31) scale(0.00830, -0.00830)" fill="#374151"/>
  <path d="M341 1096V0H175V1096ZM260 1506Q301 1506 330.5 1479.5Q360 1453 360 1397Q360 1342 330.5 1315.0Q301 1288 260 1288Q217 1288 188.5 1315.0Q160 1342 160 1397Q160 1453 188.5 1479.5Q217 1506 260 1506Z" transform="translate(225.49, 112.31) scale(0.00830, -0.00830)" fill="#374151"/>
  <path d="M673 1116Q706 1116 742.0 1112.5Q778 1109 806 1103L785 949Q758 956 725.0 960.0Q692 964 663 964Q597 964 538.5 937.5Q480 911 436.0 861.5Q392 812 367.0 742.5Q342 673 342 588V0H175V1096H313L331 894H338Q372 955 420.0 1005.5Q468 1056 531.5 1086.0Q595 1116 673 1116Z" transform="translate(229.78, 112.31) scale(0.00830, -0.00830)" fill="#374151"/>
  <path d="M365 238 378 215Q360 142 332.5 59.0Q305 -24 272.5 -107.5Q240 -191 207 -264H83Q104 -184 124.0 -95.5Q144 -7 160.5 79.5Q177 166 187 238Z" transform="translate(236.73, 112.31) scale(0.00830, -0.00830)" fill="#374151"/>
  <path d="" transform="translate(241.12, 112.31) scale(0.00830, -0.00830)" fill="#374151"/>
  <path d="M614 -20Q466 -20 353.0 41.0Q240 102 177.0 227.0Q114 352 114 542Q114 741 180.5 867.5Q247 994 364.0 1055.0Q481 1116 630 1116Q712 1116 788.5 1099.5Q865 1083 914 1058L864 919Q814 939 748.5 955.0Q683 971 626 971Q512 971 436.5 922.0Q361 873 323.5 778.0Q286 683 286 544Q286 411 322.5 317.0Q359 223 431.5 173.5Q504 124 613 124Q700 124 770.0 142.5Q840 161 897 186V38Q842 10 774.5 -5.0Q707 -20 614 -20Z" transform="translate(245.54, 112.31) scale(0.00830, -0.00830)" fill="#374151"/>
  <path d="M315 1462 277 934H172L135 1462Z" transform="translate(253.68, 112.31) scale(0.00830, -0.00830)" fill="#374151"/>
  <path d="M597 1116Q737 1116 837.0 1054.0Q937 992 990.0 880.5Q1043 769 1043 620V517H286Q289 324 382.0 223.0Q475 122 644 122Q748 122 828.0 141.0Q908 160 994 197V51Q911 14 829.5 -3.0Q748 -20 637 -20Q479 -20 361.5 44.5Q244 109 179.0 234.0Q114 359 114 540Q114 717 173.5 846.5Q233 976 341.5 1046.0Q450 1116 597 1116ZM595 980Q462 980 383.0 893.0Q304 806 289 650H869Q868 748 838.5 822.5Q809 897 749.0 938.5Q689 980 595 980Z" transform="translate(257.41, 112.31) scale(0.00830, -0.00830)" fill="#374151"/>
  <path d="M884 300Q884 195 831.5 123.5Q779 52 681.5 16.0Q584 -20 449 -20Q334 -20 250.0 -2.0Q166 16 103 49V202Q170 169 263.0 142.0Q356 115 453 115Q595 115 659.0 161.0Q723 207 723 286Q723 331 697.5 365.5Q672 400 612.0 432.5Q552 465 446 504Q341 544 264.5 583.5Q188 623 146.5 680.0Q105 737 105 828Q105 967 217.5 1041.5Q330 1116 513 1116Q612 1116 698.5 1096.5Q785 1077 860 1044L804 911Q736 940 659.0 960.0Q582 980 502 980Q387 980 325.5 942.0Q264 904 264 838Q264 787 292.5 754.0Q321 721 384.0 692.0Q447 663 550 624Q653 586 728.0 545.5Q803 505 843.5 447.5Q884 390 884 300Z" transform="translate(266.96, 112.31) scale(0.00830, -0.00830)" fill="#374151"/>
  <path d="M529 116Q570 116 613.0 123.0Q656 130 683 140V11Q654 -2 602.5 -11.0Q551 -20 502 -20Q415 -20 344.0 10.5Q273 41 230.5 114.0Q188 187 188 316V966H32V1047L189 1112L255 1350H355V1096H676V966H355V321Q355 218 402.5 167.0Q450 116 529 116Z" transform="translate(275.06, 112.31) scale(0.00830, -0.00830)" fill="#374151"/>
  <path d="" transform="translate(281.12, 112.31) scale(0.00830, -0.00830)" fill="#374151"/>
  <path d="M690 1116Q895 1116 1017.0 975.0Q1139 834 1139 551Q1139 364 1083.0 237.0Q1027 110 925.5 45.0Q824 -20 686 -20Q599 -20 533.0 3.0Q467 26 420.0 65.0Q373 104 342 150H330Q333 111 337.5 56.0Q342 1 342 -40V-490H175V1096H312L334 934H342Q374 984 420.0 1025.5Q466 1067 532.5 1091.5Q599 1116 690 1116ZM661 976Q547 976 477.5 932.0Q408 888 376.0 800.5Q344 713 342 581V549Q342 410 372.5 314.0Q403 218 473.5 168.0Q544 118 663 118Q765 118 833.0 173.0Q901 228 934.5 326.5Q968 425 968 553Q968 747 892.5 861.5Q817 976 661 976Z" transform="translate(285.53, 112.31) scale(0.00830, -0.00830)" fill="#374151"/>
  <path d="M1120 550Q1120 415 1085.0 309.0Q1050 203 984.0 130.0Q918 57 824.5 18.5Q731 -20 613 -20Q503 -20 411.5 18.5Q320 57 253.5 130.0Q187 203 150.5 309.0Q114 415 114 550Q114 730 175.0 856.5Q236 983 349.5 1049.5Q463 1116 620 1116Q770 1116 882.5 1049.0Q995 982 1057.5 855.5Q1120 729 1120 550ZM286 550Q286 418 321.0 321.0Q356 224 429.0 171.0Q502 118 617 118Q731 118 804.5 171.0Q878 224 913.0 321.0Q948 418 948 550Q948 681 913.0 776.5Q878 872 805.0 924.0Q732 976 616 976Q445 976 365.5 863.0Q286 750 286 550Z" transform="translate(295.94, 112.31) scale(0.00830, -0.00830)" fill="#374151"/>
  <path d="M1080 1096V0H944L920 154H911Q877 97 823.0 58.0Q769 19 701.5 -0.5Q634 -20 558 -20Q428 -20 340.0 22.0Q252 64 207.5 152.0Q163 240 163 378V1096H331V390Q331 253 393.0 185.5Q455 118 582 118Q704 118 776.5 164.0Q849 210 881.0 299.5Q913 389 913 519V1096Z" transform="translate(306.16, 112.31) scale(0.00830, -0.00830)" fill="#374151"/>
  <path d="M416 0 0 1096H178L419 433Q444 365 470.0 283.0Q496 201 506 151H513Q525 201 553.0 283.5Q581 366 604 433L845 1096H1023L606 0Z" transform="translate(316.59, 112.31) scale(0.00830, -0.00830)" fill="#374151"/>
  <path d="M1120 550Q1120 415 1085.0 309.0Q1050 203 984.0 130.0Q918 57 824.5 18.5Q731 -20 613 -20Q503 -20 411.5 18.5Q320 57 253.5 130.0Q187 203 150.5 309.0Q114 415 114 550Q114 730 175.0 856.5Q236 983 349.5 1049.5Q463 1116 620 1116Q770 1116 882.5 1049.0Q995 982 1057.5 855.5Q1120 729 1120 550ZM286 550Q286 418 321.0 321.0Q356 224 429.0 171.0Q502 118 617 118Q731 118 804.5 171.0Q878 224 913.0 321.0Q948 418 948 550Q948 681 913.0 776.5Q878 872 805.0 924.0Q732 976 616 976Q445 976 365.5 863.0Q286 750 286 550Z" transform="translate(325.08, 112.31) scale(0.00830, -0.00830)" fill="#374151"/>
  <path d="M341 1096V0H175V1096ZM260 1506Q301 1506 330.5 1479.5Q360 1453 360 1397Q360 1342 330.5 1315.0Q301 1288 260 1288Q217 1288 188.5 1315.0Q160 1342 160 1397Q160 1453 188.5 1479.5Q217 1506 260 1506Z" transform="translate(335.31, 112.31) scale(0.00830, -0.00830)" fill="#374151"/>
  <path d="M673 1116Q706 1116 742.0 1112.5Q778 1109 806 1103L785 949Q758 956 725.0 960.0Q692 964 663 964Q597 964 538.5 937.5Q480 911 436.0 861.5Q392 812 367.0 742.5Q342 673 342 588V0H175V1096H313L331 894H338Q372 955 420.0 1005.5Q468 1056 531.5 1086.0Q595 1116 673 1116Z" transform="translate(339.60, 112.31) scale(0.00830, -0.00830)" fill="#374151"/>
</svg>