<?xml version="1.0" encoding="UTF-8"?>
<svg xmlns="http://www.w3.org/2000/svg" viewBox="0 0 512 512" width="512" height="512">
  <rect x="0" y="0" width="512" height="512" rx="81.92" ry="81.92" fill="#4f46e5"/>
  <path d="M984 325V0H844V306Q844 371 811.0 405.5Q778 440 721 440Q664 440 630.5 405.5Q597 371 597 306V0H457V306Q457 371 424.0 405.5Q391 440 334 440Q276 440 242.5 405.5Q209 371 209 306V0H69V554H209V487Q236 522 278.5 542.0Q321 562 372 562Q437 562 488.0 534.5Q539 507 567 456Q594 504 645.5 533.0Q697 562 757 562Q859 562 921.5 499.5Q984 437 984 325Z" transform="translate(124.93, 297.21) scale(0.13081, -0.13081)" fill="#ffffff"/>
  <path d="M287 563Q341 563 390.0 539.5Q439 516 468 477V740H610V0H468V82Q442 41 395.0 16.0Q348 -9 286 -9Q216 -9 158.0 27.0Q100 63 66.5 128.5Q33 194 33 279Q33 363 66.5 428.0Q100 493 158.0 528.0Q216 563 287 563ZM322 440Q283 440 250.0 421.0Q217 402 196.5 365.5Q176 329 176 279Q176 229 196.5 191.5Q217 154 250.5 134.0Q284 114 322 114Q361 114 395.0 133.5Q429 153 449.0 189.5Q469 226 469 277Q469 328 449.0 364.5Q429 401 395.0 420.5Q361 440 322 440Z" transform="translate(262.02, 297.21) scale(0.13081, -0.13081)" fill="#ffffff"/>
  <path d="M209 740V0H69V740Z" transform="translate(350.71, 297.21) scale(0.13081, -0.13081)" fill="#ffffff"/>
  <circle cx="371.20" cy="199.29" r="31.74" fill="#f59e0b"/>
</svg>